<svg xmlns="http://www.w3.org/2000/svg" viewBox="0 0 444.51 221"><defs><style>.cls-1{fill:none;stroke:black;stroke-miterlimit:10;}</style></defs><g id="Layer_2" data-name="Layer 2"><g id="Layer_1-2" data-name="Layer 1"><polyline class="cls-1" points="140.5 207.92 139.5 136.92 144.5 136.92 144.5 138.92 153.5 135.92 153.5 131.92 159.5 131.92 159.5 133.92 159.5 134.92 167.5 131.92 167.5 127.92 169.5 127.92 169.42 217.92 140.5 217.92 140.5 207.92"/><rect class="cls-1" x="147.5" y="147.92" width="4" height="12"/><rect class="cls-1" x="161.5" y="146.92" width="4" height="12"/><rect class="cls-1" x="147.5" y="165.92" width="4" height="12"/><rect class="cls-1" x="161.5" y="165.92" width="4" height="12"/><rect class="cls-1" x="161.5" y="184.92" width="4" height="12"/><rect class="cls-1" x="147.5" y="184.92" width="4" height="12"/><rect class="cls-1" x="161.5" y="202.92" width="4" height="12"/><rect class="cls-1" x="147.5" y="202.92" width="4" height="12"/><polyline class="cls-1" points="202.63 59.77 221.63 64.77 218.63 217.77 169.5 217.92 166.5 64.92 185.5 59.92 185.5 53.92 202.5 53.92 202.5 216.92 202.5 217.92"/><line class="cls-1" x1="185.5" y1="59.92" x2="185.5" y2="217.92"/><polyline class="cls-1" points="190.5 217.92 190.5 156.92 197.5 156.92 197.59 218.01"/><rect class="cls-1" x="192.5" y="178.92" width="3" height="17"/><rect class="cls-1" x="192.5" y="197.92" width="3" height="17"/><rect class="cls-1" x="192.5" y="159.92" width="3" height="17"/><line class="cls-1" x1="189" y1="151.92" x2="200" y2="151.92"/><line class="cls-1" x1="189" y1="147.92" x2="200" y2="147.92"/><line class="cls-1" x1="189" y1="142.92" x2="200" y2="142.92"/><line class="cls-1" x1="189" y1="137.92" x2="200" y2="137.92"/><line class="cls-1" x1="189" y1="133.92" x2="200" y2="133.92"/><line class="cls-1" x1="189" y1="128.92" x2="200" y2="128.92"/><line class="cls-1" x1="189" y1="123.92" x2="200" y2="123.92"/><line class="cls-1" x1="189" y1="118.92" x2="200" y2="118.92"/><line class="cls-1" x1="189" y1="113.92" x2="200" y2="113.92"/><line class="cls-1" x1="189" y1="108.92" x2="200" y2="108.92"/><line class="cls-1" x1="189" y1="103.92" x2="200" y2="103.92"/><line class="cls-1" x1="189" y1="98.92" x2="200" y2="98.92"/><line class="cls-1" x1="189" y1="92.92" x2="200" y2="92.92"/><line class="cls-1" x1="189" y1="87.92" x2="200" y2="87.92"/><line class="cls-1" x1="189" y1="83.92" x2="200" y2="83.92"/><line class="cls-1" x1="189" y1="78.92" x2="200" y2="78.92"/><line class="cls-1" x1="189" y1="73.92" x2="200" y2="73.92"/><line class="cls-1" x1="189" y1="68.92" x2="200" y2="68.92"/><line class="cls-1" x1="189" y1="63.92" x2="200" y2="63.92"/><line class="cls-1" x1="189" y1="58.92" x2="200" y2="58.92"/><polyline class="cls-1" points="303.31 209.5 302.31 138.5 307.31 138.5 307.31 140.5 316.31 137.5 316.31 133.5 322.31 133.5 322.31 135.5 322.31 136.5 330.31 133.5 330.31 129.5 332.31 129.5 332.23 219.5 303.31 219.5 303.31 209.5"/><rect class="cls-1" x="310.31" y="149.5" width="4" height="12"/><rect class="cls-1" x="324.31" y="148.5" width="4" height="12"/><rect class="cls-1" x="310.31" y="167.5" width="4" height="12"/><rect class="cls-1" x="324.31" y="167.5" width="4" height="12"/><rect class="cls-1" x="324.31" y="186.5" width="4" height="12"/><rect class="cls-1" x="310.31" y="186.5" width="4" height="12"/><rect class="cls-1" x="324.31" y="204.5" width="4" height="12"/><rect class="cls-1" x="310.31" y="204.5" width="4" height="12"/><polyline class="cls-1" points="365.44 61.35 384.44 66.35 381.44 219.35 332.31 219.5 329.31 66.5 348.31 61.5 348.31 55.5 365.31 55.5 365.31 218.5 365.31 219.5"/><line class="cls-1" x1="348.31" y1="61.5" x2="348.31" y2="219.5"/><polyline class="cls-1" points="353.31 219.5 353.31 158.5 360.31 158.5 360.4 219.59"/><rect class="cls-1" x="355.31" y="180.5" width="3" height="17"/><rect class="cls-1" x="355.31" y="199.5" width="3" height="17"/><rect class="cls-1" x="355.31" y="161.5" width="3" height="17"/><line class="cls-1" x1="351.81" y1="153.5" x2="362.81" y2="153.5"/><line class="cls-1" x1="351.81" y1="149.5" x2="362.81" y2="149.5"/><line class="cls-1" x1="351.81" y1="144.5" x2="362.81" y2="144.5"/><line class="cls-1" x1="351.81" y1="139.5" x2="362.81" y2="139.5"/><line class="cls-1" x1="351.81" y1="135.5" x2="362.81" y2="135.5"/><line class="cls-1" x1="351.81" y1="130.5" x2="362.81" y2="130.5"/><line class="cls-1" x1="351.81" y1="125.5" x2="362.81" y2="125.5"/><line class="cls-1" x1="351.81" y1="120.5" x2="362.81" y2="120.5"/><line class="cls-1" x1="351.81" y1="115.5" x2="362.81" y2="115.5"/><line class="cls-1" x1="351.81" y1="110.5" x2="362.81" y2="110.5"/><line class="cls-1" x1="351.81" y1="105.5" x2="362.81" y2="105.5"/><line class="cls-1" x1="351.81" y1="100.5" x2="362.81" y2="100.5"/><line class="cls-1" x1="351.81" y1="94.5" x2="362.81" y2="94.5"/><line class="cls-1" x1="351.81" y1="89.5" x2="362.81" y2="89.5"/><line class="cls-1" x1="351.81" y1="85.5" x2="362.81" y2="85.5"/><line class="cls-1" x1="351.81" y1="80.5" x2="362.81" y2="80.5"/><line class="cls-1" x1="351.81" y1="75.5" x2="362.81" y2="75.5"/><line class="cls-1" x1="351.81" y1="70.5" x2="362.81" y2="70.5"/><line class="cls-1" x1="351.81" y1="65.5" x2="362.81" y2="65.5"/><line class="cls-1" x1="351.81" y1="60.5" x2="362.81" y2="60.5"/><polyline class="cls-1" points="311.31 138.5 311.31 123.5 307.31 122.5 307.31 49.5 297.31 49.5 297.31 29.5 293.31 29.5 293.31 0.5 253.31 0.5 253.31 49.5 248.31 49.5 248.31 110.5"/><path class="cls-1" d="M303.31,218.5l-90-1v-102h7v-6h46v6h6v3h4v2h-4l-1,98"/><polyline class="cls-1" points="286.31 6.5 288.31 6.5 288.31 14.5 285.31 14.5 285.31 6.5 288.31 6.5"/><rect class="cls-1" x="217.31" y="124.5" width="1" height="10"/><rect class="cls-1" x="222.31" y="124.5" width="1" height="10"/><rect class="cls-1" x="227.31" y="124.5" width="1" height="10"/><rect class="cls-1" x="232.31" y="124.5" width="1" height="10"/><rect class="cls-1" x="237.31" y="124.5" width="1" height="10"/><rect class="cls-1" x="242.31" y="124.5" width="1" height="10"/><rect class="cls-1" x="247.31" y="124.5" width="1" height="10"/><rect class="cls-1" x="252.31" y="124.5" width="1" height="10"/><rect class="cls-1" x="257.31" y="124.5" width="1" height="10"/><rect class="cls-1" x="261.31" y="124.5" width="1" height="10"/><rect class="cls-1" x="265.31" y="124.5" width="1" height="10"/><rect class="cls-1" x="217.31" y="138.5" width="1" height="10"/><rect class="cls-1" x="222.31" y="138.5" width="1" height="10"/><rect class="cls-1" x="227.31" y="138.5" width="1" height="10"/><rect class="cls-1" x="232.31" y="138.5" width="1" height="10"/><rect class="cls-1" x="237.31" y="138.5" width="1" height="10"/><rect class="cls-1" x="242.31" y="138.5" width="1" height="10"/><rect class="cls-1" x="247.31" y="138.5" width="1" height="10"/><rect class="cls-1" x="252.31" y="138.5" width="1" height="10"/><rect class="cls-1" x="257.31" y="138.5" width="1" height="10"/><rect class="cls-1" x="261.31" y="138.5" width="1" height="10"/><rect class="cls-1" x="265.31" y="138.5" width="1" height="10"/><rect class="cls-1" x="217.31" y="152.5" width="1" height="10"/><rect class="cls-1" x="222.31" y="152.5" width="1" height="10"/><rect class="cls-1" x="227.31" y="152.5" width="1" height="10"/><rect class="cls-1" x="232.31" y="152.5" width="1" height="10"/><rect class="cls-1" x="237.31" y="152.5" width="1" height="10"/><rect class="cls-1" x="242.31" y="152.5" width="1" height="10"/><rect class="cls-1" x="247.31" y="152.5" width="1" height="10"/><rect class="cls-1" x="252.31" y="152.5" width="1" height="10"/><rect class="cls-1" x="257.31" y="152.5" width="1" height="10"/><rect class="cls-1" x="261.31" y="152.5" width="1" height="10"/><rect class="cls-1" x="265.31" y="152.5" width="1" height="10"/><rect class="cls-1" x="217.31" y="166.5" width="1" height="10"/><rect class="cls-1" x="222.31" y="166.5" width="1" height="10"/><rect class="cls-1" x="227.31" y="166.5" width="1" height="10"/><rect class="cls-1" x="232.31" y="166.5" width="1" height="10"/><rect class="cls-1" x="237.31" y="166.5" width="1" height="10"/><rect class="cls-1" x="242.31" y="166.5" width="1" height="10"/><rect class="cls-1" x="247.31" y="166.5" width="1" height="10"/><rect class="cls-1" x="252.31" y="166.5" width="1" height="10"/><rect class="cls-1" x="257.31" y="166.5" width="1" height="10"/><rect class="cls-1" x="261.31" y="166.5" width="1" height="10"/><rect class="cls-1" x="265.31" y="166.5" width="1" height="10"/><polyline class="cls-1" points="279.48 6.09 281.48 6.09 281.48 14.09 278.48 14.09 278.48 6.09 281.48 6.09"/><polyline class="cls-1" points="272.48 6.09 274.48 6.09 274.48 14.09 271.48 14.09 271.48 6.09 274.48 6.09"/><polyline class="cls-1" points="265.98 6.09 267.98 6.09 267.98 14.09 264.98 14.09 264.98 6.09 267.98 6.09"/><polyline class="cls-1" points="258.98 6.09 260.98 6.09 260.98 14.09 257.98 14.09 257.98 6.09 260.98 6.09"/><polyline class="cls-1" points="279.73 21.09 281.73 21.09 281.73 29.09 278.73 29.09 278.73 21.09 281.73 21.09"/><polyline class="cls-1" points="272.73 21.09 274.73 21.09 274.73 29.09 271.73 29.09 271.73 21.09 274.73 21.09"/><polyline class="cls-1" points="266.23 21.09 268.23 21.09 268.23 29.09 265.23 29.09 265.23 21.09 268.23 21.09"/><polyline class="cls-1" points="259.23 21.09 261.23 21.09 261.23 29.09 258.23 29.09 258.23 21.09 261.23 21.09"/><polyline class="cls-1" points="462.87 210.5 461.87 139.5 466.87 139.5 466.87 141.5 475.87 138.5 475.87 134.5 481.87 134.5 481.87 136.5 481.87 137.5 489.87 134.5 489.87 130.5 491.87 130.5 491.79 220.5 462.87 220.5 462.87 210.5"/><rect class="cls-1" x="469.87" y="150.5" width="4" height="12"/><rect class="cls-1" x="483.87" y="149.5" width="4" height="12"/><rect class="cls-1" x="469.87" y="168.5" width="4" height="12"/><rect class="cls-1" x="483.87" y="168.5" width="4" height="12"/><rect class="cls-1" x="483.87" y="187.5" width="4" height="12"/><rect class="cls-1" x="469.87" y="187.5" width="4" height="12"/><rect class="cls-1" x="483.87" y="205.5" width="4" height="12"/><rect class="cls-1" x="469.87" y="205.5" width="4" height="12"/><polyline class="cls-1" points="525 62.35 544 67.35 541 220.35 491.87 220.5 488.87 67.5 507.87 62.5 507.87 56.5 524.87 56.5 524.87 219.5 524.87 220.5"/><line class="cls-1" x1="507.87" y1="62.5" x2="507.87" y2="220.5"/><polyline class="cls-1" points="512.87 220.5 512.87 159.5 519.87 159.5 519.96 220.59"/><rect class="cls-1" x="514.87" y="181.5" width="3" height="17"/><rect class="cls-1" x="514.87" y="200.5" width="3" height="17"/><rect class="cls-1" x="514.87" y="162.5" width="3" height="17"/><line class="cls-1" x1="511.37" y1="154.5" x2="522.37" y2="154.5"/><line class="cls-1" x1="511.37" y1="150.5" x2="522.37" y2="150.5"/><line class="cls-1" x1="511.37" y1="145.5" x2="522.37" y2="145.5"/><line class="cls-1" x1="511.37" y1="140.5" x2="522.37" y2="140.5"/><line class="cls-1" x1="511.37" y1="136.5" x2="522.37" y2="136.5"/><line class="cls-1" x1="511.37" y1="131.5" x2="522.37" y2="131.5"/><line class="cls-1" x1="511.37" y1="126.5" x2="522.37" y2="126.5"/><line class="cls-1" x1="511.37" y1="121.5" x2="522.37" y2="121.5"/><line class="cls-1" x1="511.37" y1="116.5" x2="522.37" y2="116.5"/><line class="cls-1" x1="511.37" y1="111.5" x2="522.37" y2="111.5"/><line class="cls-1" x1="511.37" y1="106.5" x2="522.37" y2="106.5"/><line class="cls-1" x1="511.37" y1="101.5" x2="522.37" y2="101.5"/><line class="cls-1" x1="511.37" y1="95.5" x2="522.37" y2="95.5"/><line class="cls-1" x1="511.37" y1="90.5" x2="522.37" y2="90.5"/><line class="cls-1" x1="511.37" y1="86.5" x2="522.37" y2="86.5"/><line class="cls-1" x1="511.37" y1="81.5" x2="522.37" y2="81.5"/><line class="cls-1" x1="511.37" y1="76.5" x2="522.37" y2="76.5"/><line class="cls-1" x1="511.37" y1="71.5" x2="522.37" y2="71.5"/><line class="cls-1" x1="511.37" y1="66.5" x2="522.37" y2="66.5"/><line class="cls-1" x1="511.37" y1="61.5" x2="522.37" y2="61.5"/><polyline class="cls-1" points="470.87 139.5 470.87 124.5 466.87 123.5 466.87 50.5 456.87 50.5 456.87 30.5 452.87 30.5 452.87 1.5 412.87 1.5 412.87 50.5 407.87 50.5 407.87 111.5"/><path class="cls-1" d="M462.87,219.5l-90-1v-102h7v-6h46v6h6v3h4v2h-4l-1,98"/><polyline class="cls-1" points="445.87 7.5 447.87 7.5 447.87 15.5 444.87 15.5 444.87 7.5 447.87 7.5"/><rect class="cls-1" x="376.87" y="125.5" width="1" height="10"/><rect class="cls-1" x="381.87" y="125.5" width="1" height="10"/><rect class="cls-1" x="386.87" y="125.5" width="1" height="10"/><rect class="cls-1" x="391.87" y="125.5" width="1" height="10"/><rect class="cls-1" x="396.87" y="125.5" width="1" height="10"/><rect class="cls-1" x="401.87" y="125.5" width="1" height="10"/><rect class="cls-1" x="406.87" y="125.5" width="1" height="10"/><rect class="cls-1" x="411.87" y="125.5" width="1" height="10"/><rect class="cls-1" x="416.87" y="125.5" width="1" height="10"/><rect class="cls-1" x="420.87" y="125.5" width="1" height="10"/><rect class="cls-1" x="424.87" y="125.5" width="1" height="10"/><rect class="cls-1" x="376.87" y="139.5" width="1" height="10"/><rect class="cls-1" x="381.87" y="139.5" width="1" height="10"/><rect class="cls-1" x="386.87" y="139.5" width="1" height="10"/><rect class="cls-1" x="391.87" y="139.5" width="1" height="10"/><rect class="cls-1" x="396.87" y="139.5" width="1" height="10"/><rect class="cls-1" x="401.87" y="139.5" width="1" height="10"/><rect class="cls-1" x="406.87" y="139.5" width="1" height="10"/><rect class="cls-1" x="411.87" y="139.5" width="1" height="10"/><rect class="cls-1" x="416.87" y="139.5" width="1" height="10"/><rect class="cls-1" x="420.87" y="139.5" width="1" height="10"/><rect class="cls-1" x="424.87" y="139.5" width="1" height="10"/><rect class="cls-1" x="376.87" y="153.5" width="1" height="10"/><rect class="cls-1" x="381.87" y="153.5" width="1" height="10"/><rect class="cls-1" x="386.87" y="153.5" width="1" height="10"/><rect class="cls-1" x="391.87" y="153.5" width="1" height="10"/><rect class="cls-1" x="396.87" y="153.5" width="1" height="10"/><rect class="cls-1" x="401.87" y="153.5" width="1" height="10"/><rect class="cls-1" x="406.87" y="153.5" width="1" height="10"/><rect class="cls-1" x="411.87" y="153.5" width="1" height="10"/><rect class="cls-1" x="416.87" y="153.5" width="1" height="10"/><rect class="cls-1" x="420.87" y="153.5" width="1" height="10"/><rect class="cls-1" x="424.87" y="153.5" width="1" height="10"/><rect class="cls-1" x="376.87" y="167.5" width="1" height="10"/><rect class="cls-1" x="381.87" y="167.5" width="1" height="10"/><rect class="cls-1" x="386.87" y="167.5" width="1" height="10"/><rect class="cls-1" x="391.87" y="167.5" width="1" height="10"/><rect class="cls-1" x="396.87" y="167.5" width="1" height="10"/><rect class="cls-1" x="401.87" y="167.5" width="1" height="10"/><rect class="cls-1" x="406.87" y="167.5" width="1" height="10"/><rect class="cls-1" x="411.87" y="167.5" width="1" height="10"/><rect class="cls-1" x="416.87" y="167.5" width="1" height="10"/><rect class="cls-1" x="420.87" y="167.5" width="1" height="10"/><rect class="cls-1" x="424.87" y="167.5" width="1" height="10"/><polyline class="cls-1" points="439.04 7.09 441.04 7.09 441.04 15.09 438.04 15.09 438.04 7.09 441.04 7.09"/><polyline class="cls-1" points="432.04 7.09 434.04 7.09 434.04 15.09 431.04 15.09 431.04 7.09 434.04 7.09"/><polyline class="cls-1" points="425.54 7.09 427.54 7.09 427.54 15.09 424.54 15.09 424.54 7.09 427.54 7.09"/><polyline class="cls-1" points="418.54 7.09 420.54 7.09 420.54 15.09 417.54 15.09 417.54 7.09 420.54 7.09"/><polyline class="cls-1" points="439.29 22.09 441.29 22.09 441.29 30.09 438.29 30.09 438.29 22.09 441.29 22.09"/><polyline class="cls-1" points="432.29 22.09 434.29 22.09 434.29 30.09 431.29 30.09 431.29 22.09 434.29 22.09"/><polyline class="cls-1" points="425.79 22.09 427.79 22.09 427.79 30.09 424.79 30.09 424.79 22.09 427.79 22.09"/><polyline class="cls-1" points="418.79 22.09 420.79 22.09 420.79 30.09 417.79 30.09 417.79 22.09 420.79 22.09"/><polyline class="cls-1" points="142.5 135.92 142.5 66.92 92.5 94.92 92.5 106.92 92.5 156.86"/><polyline class="cls-1" points="133.5 81.92 125.5 86.92 125.5 210.92 135.5 210.92 135.5 80.92 133.5 81.92"/><polyline class="cls-1" points="140.5 217.92 0.5 217.92 0.5 175.92 31.5 151.92 31.5 174.92 56.5 149.92 56.5 172.92 77.5 150.92 77.5 171.92 98.5 150.92 98.5 216.92"/><rect class="cls-1" x="9.5" y="181.92" width="3" height="22"/><rect class="cls-1" x="17.5" y="181.92" width="3" height="22"/><rect class="cls-1" x="26.5" y="181.92" width="3" height="22"/><rect class="cls-1" x="36.5" y="181.92" width="3" height="22"/><rect class="cls-1" x="46.5" y="181.92" width="3" height="22"/><rect class="cls-1" x="56.5" y="181.92" width="3" height="22"/><line class="cls-1" x1="92.5" y1="156.86" x2="92.5" y2="217.92"/><rect class="cls-1" x="66.5" y="181.92" width="3" height="22"/><rect class="cls-1" x="77.5" y="181.92" width="3" height="22"/></g></g></svg>