<?xml version="1.0" standalone="no"?>
<!DOCTYPE svg PUBLIC "-//W3C//DTD SVG 20010904//EN"
 "http://www.w3.org/TR/2001/REC-SVG-20010904/DTD/svg10.dtd">
<svg version="1.0" xmlns="http://www.w3.org/2000/svg"
 width="225.000000pt" height="225.000000pt" viewBox="0 0 225.000000 225.000000"
 preserveAspectRatio="xMidYMid meet">

<g transform="translate(0.000000,225.000000) scale(0.100000,-0.100000)"
fill="white" stroke="none">
<path d="M588 2110 c-27 -17 -428 -538 -428 -558 0 -33 21 -42 103 -42 47 0
77 -4 75 -10 -1 -5 -60 -84 -130 -174 -71 -90 -128 -173 -128 -184 0 -32 22
-41 113 -44 l87 -3 -140 -180 c-77 -99 -140 -188 -140 -197 0 -9 10 -24 22
-32 18 -13 57 -16 215 -16 l193 0 0 -130 0 -129 -42 13 c-24 7 -63 20 -88 28
-25 9 -69 19 -98 23 -43 6 -57 4 -73 -11 -17 -15 -19 -31 -19 -159 0 -125 2
-144 18 -158 17 -16 101 -17 1000 -17 969 0 982 0 1002 20 18 18 20 33 20 155
0 124 -2 137 -21 156 -18 18 -28 20 -78 14 -31 -4 -83 -17 -116 -29 -33 -13
-72 -26 -87 -30 l-28 -6 0 130 0 130 193 0 c158 0 197 3 215 16 12 8 22 23 22
32 0 9 -63 98 -140 197 l-140 180 87 3 c91 3 113 12 113 44 0 11 -57 94 -127
184 -71 90 -129 169 -131 174 -2 6 28 10 75 10 82 0 103 9 103 42 0 22 -402
543 -430 558 -10 6 -25 7 -33 4 -8 -3 -63 -68 -123 -145 -59 -76 -110 -139
-114 -139 -4 0 -55 63 -114 139 -60 77 -115 142 -123 145 -27 11 -51 -13 -164
-159 -61 -79 -115 -142 -120 -140 -4 3 -53 65 -110 138 -97 126 -134 167 -148
167 -3 0 -14 -5 -23 -10z m62 -168 c20 -26 65 -84 100 -129 l63 -83 -61 -79
c-91 -117 -84 -141 40 -141 43 0 78 -3 78 -7 0 -5 -59 -82 -130 -173 -72 -92
-130 -174 -130 -186 0 -34 21 -43 113 -46 l87 -3 -126 -162 -127 -163 -204 0
c-161 0 -203 3 -197 13 5 6 66 86 136 176 165 212 166 228 16 233 l-85 3 133
170 c73 94 133 178 134 187 0 35 -28 48 -106 48 -41 0 -74 2 -74 5 0 9 293
385 299 384 3 0 22 -21 41 -47z m643 -145 l148 -192 -77 -3 c-142 -5 -140 -24
26 -236 72 -91 130 -168 130 -171 0 -3 -38 -5 -84 -5 -86 0 -116 -12 -116 -45
0 -7 62 -93 139 -191 l139 -179 -229 -3 c-126 -1 -333 -1 -460 0 l-230 3 135
174 c174 223 175 238 24 243 l-85 3 133 170 c73 94 133 178 134 187 0 35 -28
48 -106 48 -41 0 -74 3 -74 6 0 9 293 384 299 383 3 0 73 -86 154 -192z m500
3 c81 -104 147 -192 147 -195 0 -3 -33 -5 -74 -5 -78 0 -106 -13 -106 -48 1
-9 61 -93 134 -187 l133 -170 -85 -3 c-151 -5 -150 -20 24 -243 l135 -174
-183 -3 c-100 -1 -187 -1 -194 2 -11 4 -254 311 -254 321 0 3 38 5 84 5 86 0
116 12 116 45 0 7 -61 91 -135 186 l-135 174 85 3 c72 2 86 6 95 22 13 25 0
50 -74 144 -31 40 -52 75 -48 82 15 25 177 233 183 233 3 1 72 -84 152 -189z
m-1103 -1233 l0 -102 -57 -22 c-32 -13 -69 -24 -83 -25 l-25 -3 -3 128 -3 127
86 0 85 0 0 -103z m270 -5 l0 -109 -62 13 c-35 8 -75 14 -90 14 l-28 0 0 95 0
95 90 0 90 0 0 -108z m260 -17 l0 -124 -33 -6 c-17 -4 -55 -5 -82 -3 l-50 3
-3 128 -3 127 86 0 85 0 0 -125z m250 31 l0 -93 -47 -6 c-27 -3 -63 -9 -80
-13 l-33 -6 0 106 0 106 80 0 80 0 0 -94z m260 -30 c0 -69 -3 -127 -7 -129 -5
-3 -43 7 -85 21 l-78 26 0 103 0 103 85 0 85 0 0 -124z m-1411 -197 c86 -28
105 -31 186 -26 64 3 110 13 158 31 96 37 185 36 297 -4 118 -41 207 -41 332
0 123 41 203 41 318 0 118 -41 212 -41 330 0 47 16 91 30 98 30 8 0 12 -22 12
-75 l0 -75 -925 0 -925 0 0 75 c0 50 4 75 11 75 7 0 55 -14 108 -31z"/>
</g>
</svg>
