<svg xmlns="http://www.w3.org/2000/svg" viewBox="0 0 512 512" style="height: 512px; width: 512px;"><defs><linearGradient id="delapouite-confirmed-gradient-1" x1="0" x2="1" y1="1" y2="0"><stop offset="0%" stop-color="#36d1dc" stop-opacity="1"></stop><stop offset="100%" stop-color="#ffdca2" stop-opacity="1"></stop></linearGradient></defs><g class="" transform="translate(0,0)" style=""><path d="M256 16C123.5 16 16 123.5 16 256c0 132.6 107.5 240 240 240 132.6 0 240-107.4 240-240S388.6 16 256 16zm0 60c99.4 0 180 80.6 180 180s-80.6 180-180 180S76 355.4 76 256 156.6 76 256 76zm91.3 64.2c-6.5 0-12.5 2.4-16.8 8.2-52 70.1-69 96.5-106 169.8-8.4-11.1-65.6-72.4-93.9-94.1-14.2-10.9-41.3 27.2-31.6 37.1C142.6 306.1 220.1 406 232.7 405c21.4-1.7 75.1-136.8 148.8-233.7 8-10.4-15-31.3-34.2-31.1z" fill="url(#delapouite-confirmed-gradient-1)" transform="translate(76.8, 76.8) scale(0.7, 0.7) rotate(0, 256, 256) skewX(0) skewY(0)"></path></g></svg>