<?xml version="1.0" standalone="no"?>
<!DOCTYPE svg PUBLIC "-//W3C//DTD SVG 20010904//EN"
 "http://www.w3.org/TR/2001/REC-SVG-20010904/DTD/svg10.dtd">
<svg version="1.0" xmlns="http://www.w3.org/2000/svg"
 width="499.000000pt" height="300.000000pt" viewBox="0 0 499.000000 300.000000"
 preserveAspectRatio="xMidYMid meet">
<metadata>
Created by potrace 1.16, written by Peter Selinger 2001-2019
</metadata>
<g transform="translate(0.000000,300.000000) scale(0.100000,-0.100000)"
fill="white" stroke="none">
<path d="M2408 2353 c-144 -149 -162 -232 -94 -426 21 -59 35 -111 31 -115 -4
-4 -48 -7 -99 -7 -87 0 -94 2 -127 29 -83 70 -123 159 -124 278 0 41 -4 68
-11 68 -5 0 -35 -23 -67 -50 -38 -35 -67 -72 -89 -118 -32 -65 -33 -69 -32
-194 l1 -128 -41 0 c-70 0 -112 18 -150 62 -36 42 -88 161 -100 231 -8 42 -24
47 -52 15 -61 -69 -85 -149 -85 -288 0 -58 5 -129 11 -159 5 -30 8 -56 6 -58
-11 -11 -95 45 -142 93 -51 54 -134 199 -134 236 0 60 -81 -47 -117 -155 -23
-70 -27 -99 -27 -202 -1 -111 1 -125 26 -179 16 -32 28 -62 28 -66 0 -15 -97
-35 -162 -33 -145 3 -257 93 -351 280 -29 59 -59 123 -65 141 -6 17 -15 32
-21 32 -11 0 -96 -253 -138 -410 -24 -91 -27 -124 -28 -250 0 -127 3 -151 21
-191 31 -66 79 -116 144 -149 85 -43 159 -54 328 -47 165 6 309 29 552 88 255
62 425 96 540 110 186 21 417 -2 607 -60 l62 -19 90 34 c163 62 206 69 416 68
218 0 250 -6 675 -119 363 -97 524 -128 626 -123 75 4 93 9 179 52 79 39 101
55 134 99 52 70 69 105 92 194 58 228 -8 539 -149 702 l-39 45 -7 -83 c-22
-269 -174 -394 -458 -378 -55 3 -102 7 -104 10 -3 3 7 63 22 133 37 173 37
279 3 354 -23 49 -90 141 -108 148 -4 1 -13 -22 -20 -52 -17 -78 -83 -205
-127 -248 -58 -55 -166 -93 -150 -53 17 44 28 158 24 253 -4 120 -21 169 -82
235 l-34 38 -27 -88 c-15 -48 -38 -109 -50 -134 -25 -49 -81 -104 -122 -120
-27 -10 -126 -12 -136 -3 -3 3 4 25 16 47 18 35 22 59 22 137 0 83 -4 102 -28
151 -36 74 -135 175 -153 156 -3 -3 -14 -44 -25 -92 -39 -178 -106 -267 -218
-289 -43 -8 -103 8 -126 34 -19 21 -18 23 14 115 45 127 42 199 -11 306 -37
75 -129 189 -152 189 -7 0 -46 -35 -88 -77z"/>
</g>
</svg>
