<?xml version="1.0" standalone="no"?>
<!DOCTYPE svg PUBLIC "-//W3C//DTD SVG 20010904//EN"
 "http://www.w3.org/TR/2001/REC-SVG-20010904/DTD/svg10.dtd">
<svg version="1.0" xmlns="http://www.w3.org/2000/svg"
 width="1080.000000pt" height="1080.000000pt" viewBox="0 0 1080.000000 1080.000000"
 preserveAspectRatio="xMidYMid meet">

<g transform="translate(0.000000,1080.000000) scale(0.100000,-0.100000)"
fill="#000000" stroke="none">
<path d="M1215 8073 c-146 -341 -151 -352 -178 -364 -21 -9 -64 0 -273 59
-136 39 -250 69 -252 67 -2 -2 7 -9 20 -16 12 -6 207 -125 433 -262 226 -138
496 -302 600 -365 191 -115 330 -178 368 -166 11 3 17 2 14 -2 -3 -5 6 -9 19
-9 32 0 31 4 -13 42 l-38 32 44 -15 c24 -8 56 -14 70 -12 23 3 15 10 -54 53
-44 27 -82 52 -85 56 -3 4 -61 42 -130 85 -69 42 -152 96 -185 118 -33 23
-109 72 -170 111 -60 38 -112 72 -115 75 -3 3 -24 18 -47 33 -24 15 -43 30
-43 32 0 3 10 -1 23 -9 12 -8 32 -17 45 -21 13 -4 56 -26 96 -50 40 -23 83
-46 97 -50 13 -4 49 -22 79 -39 30 -17 74 -40 97 -50 38 -17 43 -17 57 -3 13
12 13 16 2 20 -7 3 -16 17 -18 31 -3 14 -1 23 3 20 5 -3 9 0 9 5 0 6 -6 11
-12 11 -10 0 -10 2 0 9 11 6 10 12 -4 26 -10 9 -19 27 -20 39 -1 11 -3 23 -5
26 -1 3 -3 10 -3 17 -1 6 -17 25 -36 43 -20 18 -26 27 -14 21 19 -9 21 -8 16
14 -2 14 -8 25 -13 25 -11 0 -69 121 -69 143 0 10 -5 17 -10 17 -6 0 -15 12
-22 28 -6 15 -17 41 -24 59 -8 17 -14 36 -14 42 0 6 -9 15 -20 21 -11 6 -20
20 -20 30 0 11 -9 29 -20 40 -11 11 -20 26 -20 34 0 8 -4 18 -10 21 -5 3 -10
22 -10 41 0 22 -6 37 -15 40 -8 4 -15 16 -15 28 -1 68 -22 34 -115 -181z"/>
<path d="M437 7739 c-17 -19 -14 -21 65 -72 46 -29 90 -57 98 -62 26 -14 -2
10 -43 37 -30 20 -34 27 -22 32 19 7 14 13 -46 58 -35 26 -36 26 -52 7z"/>
<path d="M635 7585 c11 -9 29 -21 40 -26 l20 -10 -20 16 c-11 9 -29 21 -40 26
l-20 10 20 -16z"/>
<path d="M700 7546 c0 -3 9 -10 20 -16 11 -6 20 -8 20 -6 0 3 -9 10 -20 16
-11 6 -20 8 -20 6z"/>
<path d="M780 7496 c0 -3 9 -10 20 -16 11 -6 20 -8 20 -6 0 3 -9 10 -20 16
-11 6 -20 8 -20 6z"/>
<path d="M3870 5586 c0 -3 9 -10 20 -16 11 -6 20 -8 20 -6 0 3 -9 10 -20 16
-11 6 -20 8 -20 6z"/>
<path d="M3950 5536 c0 -3 9 -10 20 -16 11 -6 20 -8 20 -6 0 3 -9 10 -20 16
-11 6 -20 8 -20 6z"/>
<path d="M4000 5506 c0 -3 9 -10 20 -16 11 -6 20 -8 20 -6 0 3 -9 10 -20 16
-11 6 -20 8 -20 6z"/>
<path d="M4065 5465 c11 -9 29 -21 40 -26 l20 -10 -20 16 c-11 9 -29 21 -40
26 l-20 10 20 -16z"/>
<path d="M4130 5426 c0 -3 9 -10 20 -16 11 -6 20 -8 20 -6 0 3 -9 10 -20 16
-11 6 -20 8 -20 6z"/>
<path d="M4195 5385 c11 -9 29 -21 40 -26 l20 -10 -20 16 c-11 9 -29 21 -40
26 l-20 10 20 -16z"/>
<path d="M4279 5333 c13 -10 43 -28 65 -41 23 -13 30 -15 17 -5 -13 10 -43 28
-65 41 -23 13 -30 15 -17 5z"/>
<path d="M4922 5285 c8 -8 114 -83 230 -160 85 -57 100 -79 25 -37 -64 36 -78
36 -19 1 53 -33 102 -72 102 -83 0 -17 32 -45 45 -40 7 3 16 1 20 -5 3 -6 11
-11 18 -11 6 0 2 7 -9 15 -18 14 -17 14 11 4 17 -6 39 -18 50 -28 11 -10 35
-28 53 -40 l33 -23 -7 27 c-6 23 -4 26 7 19 8 -5 25 -10 39 -11 l25 -3 -27 20
c-15 12 -25 26 -23 33 4 11 -84 68 -303 197 -42 25 -90 54 -107 64 l-30 18 23
-20 c12 -11 22 -23 22 -27 0 -6 -30 9 -145 76 -22 12 -37 19 -33 14z m458
-306 l25 -20 -32 16 c-18 8 -33 18 -33 20 0 10 16 4 40 -16z"/>
<path d="M4405 5253 c18 -18 909 -573 920 -573 3 0 40 -22 83 -48 97 -61 110
-68 97 -54 -7 7 -745 466 -1095 680 l-25 15 20 -20z"/>
<path d="M5099 5042 c13 -11 105 -68 205 -128 100 -59 191 -114 204 -122 12
-8 22 -12 22 -9 0 9 -365 235 -430 266 l-25 12 24 -19z"/>
<path d="M5525 4562 c11 -11 1050 -657 1453 -903 139 -85 395 -242 570 -350
333 -205 424 -259 407 -242 -5 6 -262 166 -570 356 -308 189 -850 523 -1205
742 -705 434 -669 412 -655 397z"/>
<path d="M9028 2583 c7 -3 16 -2 19 1 4 3 -2 6 -13 5 -11 0 -14 -3 -6 -6z"/>
<path d="M9158 2553 c7 -3 16 -2 19 1 4 3 -2 6 -13 5 -11 0 -14 -3 -6 -6z"/>
<path d="M9198 2543 c7 -3 16 -2 19 1 4 3 -2 6 -13 5 -11 0 -14 -3 -6 -6z"/>
<path d="M9288 2523 c7 -3 16 -2 19 1 4 3 -2 6 -13 5 -11 0 -14 -3 -6 -6z"/>
<path d="M9328 2513 c7 -3 16 -2 19 1 4 3 -2 6 -13 5 -11 0 -14 -3 -6 -6z"/>
<path d="M9418 2493 c7 -3 16 -2 19 1 4 3 -2 6 -13 5 -11 0 -14 -3 -6 -6z"/>
<path d="M9458 2483 c7 -3 16 -2 19 1 4 3 -2 6 -13 5 -11 0 -14 -3 -6 -6z"/>
<path d="M9548 2463 c7 -3 16 -2 19 1 4 3 -2 6 -13 5 -11 0 -14 -3 -6 -6z"/>
<path d="M9588 2453 c7 -3 16 -2 19 1 4 3 -2 6 -13 5 -11 0 -14 -3 -6 -6z"/>
<path d="M9628 2443 c7 -3 16 -2 19 1 4 3 -2 6 -13 5 -11 0 -14 -3 -6 -6z"/>
<path d="M9678 2433 c7 -3 16 -2 19 1 4 3 -2 6 -13 5 -11 0 -14 -3 -6 -6z"/>
<path d="M9718 2423 c7 -3 16 -2 19 1 4 3 -2 6 -13 5 -11 0 -14 -3 -6 -6z"/>
<path d="M9758 2413 c7 -3 16 -2 19 1 4 3 -2 6 -13 5 -11 0 -14 -3 -6 -6z"/>
</g>
</svg>
