<?xml version="1.0" encoding="iso-8859-1"?>
<!-- Generator: Adobe Illustrator 19.0.0, SVG Export Plug-In . SVG Version: 6.00 Build 0)  -->
<svg version="1.1" id="Capa_1" xmlns="http://www.w3.org/2000/svg" xmlns:xlink="http://www.w3.org/1999/xlink" x="0px" y="0px"
	 viewBox="0 0 512.005 512.005" style="enable-background:new 0 0 512.005 512.005;" xml:space="preserve" fill="white">
<g>
	<g>
		<path d="M358.06,492.002h-0.475c-5.523,0-10,4.477-10,10s4.477,10,10,10h0.475c5.523,0,10-4.477,10-10
			S363.583,492.002,358.06,492.002z"/>
	</g>
</g>
<g>
	<g>
		<path d="M502.004,492.002h-74.858v-20.415c0-5.523-4.477-10-10-10h-56.545l6.565-18.337h8.817c4.37,0,8.233-2.837,9.542-7.006
			l10-31.876c0.953-3.038,0.403-6.347-1.481-8.913c-1.884-2.565-4.877-4.081-8.06-4.081h-74.336l-22.014-283.6l23.205-26.845
			c2.559-2.96,3.156-7.141,1.528-10.699c-1.627-3.558-5.181-5.84-9.094-5.84h-14.696c0.339-7.203-1.088-14.564-4.259-20.245
			L264.54,5.127C262.774,1.961,259.433,0,255.808,0c-3.624,0-6.966,1.961-8.732,5.127l-21.114,37.829
			c-3.35,6.003-4.893,13.784-4.555,21.435h-15.048c-3.926,0-7.488,2.297-9.108,5.873c-1.621,3.576-0.999,7.769,1.59,10.721
			l23.53,26.833L200.36,391.377h-74.355c-3.183,0-6.176,1.516-8.06,4.081c-1.884,2.566-2.434,5.875-1.481,8.913l10,31.876
			c1.308,4.169,5.172,7.006,9.542,7.006h8.837l6.564,18.337H87.144c-5.523,0-10,4.477-10,10v20.414H10.002c-5.523,0-10,4.477-10,10
			s4.477,10,10,10h298.175c5.523,0,10-4.478,10-10c0-5.523-4.477-10-10-10H97.143V481.59H407.12h0.025v10.415h-20.001
			c-5.523,0-10,4.477-10,10s4.477,10,10,10h114.859c5.523,0,10-4.477,10-10C512.004,496.479,507.527,492.002,502.004,492.002z
			 M243.426,52.703l12.382-22.184l13.045,23.374c1.443,2.586,2.013,6.698,1.687,10.497h-29.087
			C241.127,60.136,241.802,55.614,243.426,52.703z M283.409,84.39l-8.645,10h-37.568l-8.768-10H283.409z M241.92,114.39h28.165
			l21.501,276.984H220.42L241.92,114.39z M143.348,423.25l-3.726-11.875h232.742l-3.726,11.875H143.348z M339.357,461.587H172.649
			l-6.564-18.337h179.837L339.357,461.587z"/>
	</g>
</g>
<g>
</g>
<g>
</g>
<g>
</g>
<g>
</g>
<g>
</g>
<g>
</g>
<g>
</g>
<g>
</g>
<g>
</g>
<g>
</g>
<g>
</g>
<g>
</g>
<g>
</g>
<g>
</g>
<g>
</g>
</svg>
